<svg xmlns="http://www.w3.org/2000/svg" width="33.767" height="32" viewBox="0 0 33.767 32">
  <path id="image-plus" d="M35.955,17.367V27.732a5.845,5.845,0,0,1-6.479,6.479H8.745a5.845,5.845,0,0,1-6.479-6.479V10.456A5.845,5.845,0,0,1,8.745,3.978H20.838a1.3,1.3,0,1,1,0,2.591H8.745c-2.724,0-3.887,1.163-3.887,3.887V26.437l4.388-4.388a1.741,1.741,0,0,1,2.453,0l1.624,1.624a.864.864,0,0,0,1.209,0l8.534-8.534a1.741,1.741,0,0,1,2.453,0l7.843,7.843V17.367a1.3,1.3,0,0,1,2.591,0ZM12.188,11.752a2.165,2.165,0,1,0,.012,0ZM27.749,8.3h2.16v2.16a1.3,1.3,0,1,0,2.591,0V8.3h2.16a1.3,1.3,0,0,0,0-2.591H32.5V3.546a1.3,1.3,0,0,0-2.591,0v2.16h-2.16a1.3,1.3,0,1,0,0,2.591Z" transform="translate(-2.227 -2.25)" fill="#404650"/>
</svg>
