<svg xmlns="http://www.w3.org/2000/svg" width="22.194" height="18" viewBox="0 0 22.194 18">
  <path id="svgexport-16" d="M7.029,18A12.829,12.829,0,0,0,19.98,5.291V4.428a9.962,9.962,0,0,0,2.214-2.347,10.051,10.051,0,0,1-2.59.742A4.727,4.727,0,0,0,21.574.365,10.781,10.781,0,0,1,18.74,1.472,4.428,4.428,0,0,0,15.419,0a4.627,4.627,0,0,0-4.572,4.56,2.28,2.28,0,0,0,.122.974A12.741,12.741,0,0,1,1.605.742a4.671,4.671,0,0,0-.62,2.336,4.926,4.926,0,0,0,1.97,3.83,4.228,4.228,0,0,1-2.092-.62h0a4.494,4.494,0,0,0,3.7,4.428,3.553,3.553,0,0,1-1.24.133,2.048,2.048,0,0,1-.863-.122,4.671,4.671,0,0,0,4.317,3.21,9.353,9.353,0,0,1-5.667,1.97A3.409,3.409,0,0,1,0,15.785,11.667,11.667,0,0,0,7.029,18" transform="translate(0 0)" fill="#05a9f4" fill-rule="evenodd"/>
</svg>
