<svg xmlns="http://www.w3.org/2000/svg" width="39.455" height="32" viewBox="0 0 39.455 32">
  <path id="svgexport-16" d="M12.5,32A22.807,22.807,0,0,0,35.52,9.406V7.871A17.711,17.711,0,0,0,39.455,3.7a17.868,17.868,0,0,1-4.6,1.318,8.4,8.4,0,0,0,3.5-4.369,19.167,19.167,0,0,1-5.038,1.968A7.871,7.871,0,0,0,27.412,0a8.226,8.226,0,0,0-8.127,8.108A4.054,4.054,0,0,0,19.5,9.839,22.65,22.65,0,0,1,2.853,1.319a8.3,8.3,0,0,0-1.1,4.152,8.757,8.757,0,0,0,3.5,6.809,7.517,7.517,0,0,1-3.719-1.1h0a7.989,7.989,0,0,0,6.573,7.871,6.317,6.317,0,0,1-2.2.236,3.641,3.641,0,0,1-1.535-.216,8.3,8.3,0,0,0,7.675,5.707,16.628,16.628,0,0,1-10.075,3.5A6.061,6.061,0,0,1,0,28.062,20.741,20.741,0,0,0,12.5,32" transform="translate(0 0)" fill="#fff" fill-rule="evenodd"/>
</svg>
